<svg xmlns="http://www.w3.org/2000/svg" viewBox="0 0 560 125" width="560" height="125" role="img" aria-label="Mini coefplot con IC 95 para especificacion preferida y referencia kernel">
  <rect x="0" y="0" width="560" height="125" fill="white"/>

  <line x1="175" y1="16" x2="175" y2="96" stroke="#8a8f93" stroke-width="1.2"/>

  <line x1="228" y1="74" x2="389" y2="74" stroke="#5f6b6d" stroke-width="2.2"/>
  <circle cx="309" cy="74" r="3.8" fill="#5f6b6d"/>
  <line x1="233" y1="38" x2="392" y2="38" stroke="#2f3a3d" stroke-width="2.2"/>
  <circle cx="312" cy="38" r="3.8" fill="#2f3a3d"/>

  <text x="10" y="42" font-size="13" fill="#2f3a3d">Preferida por diseño</text>
  <text x="10" y="78" font-size="13" fill="#5f6b6d">Referencia kernel</text>

  <line x1="175" y1="101" x2="425" y2="101" stroke="#bdc3c7" stroke-width="1"/>
  <line x1="175" y1="98" x2="175" y2="104" stroke="#7f8c8d" stroke-width="1"/>
  <line x1="238" y1="98" x2="238" y2="104" stroke="#7f8c8d" stroke-width="1"/>
  <line x1="300" y1="98" x2="300" y2="104" stroke="#7f8c8d" stroke-width="1"/>
  <line x1="363" y1="98" x2="363" y2="104" stroke="#7f8c8d" stroke-width="1"/>
  <line x1="425" y1="98" x2="425" y2="104" stroke="#7f8c8d" stroke-width="1"/>

  <text x="168" y="117" font-size="11" fill="#6c757d">0.00</text>
  <text x="231" y="117" font-size="11" fill="#6c757d">0.05</text>
  <text x="293" y="117" font-size="11" fill="#6c757d">0.10</text>
  <text x="356" y="117" font-size="11" fill="#6c757d">0.15</text>
  <text x="418" y="117" font-size="11" fill="#6c757d">0.20</text>
</svg>
