<svg xmlns="http://www.w3.org/2000/svg" viewBox="0 0 880 530" role="img" aria-labelledby="title desc"><title id="title">La mediana no resume el perfil ajustado</title><desc id="desc">Coeficiente de participación · tres cuantiles condicionales e IC95% bootstrap</desc><g font-family="Segoe UI, system-ui, sans-serif"><rect width="880" height="530" rx="18" fill="#f8fafc"/><rect x="26" y="104" width="828" height="338" rx="14" fill="white" stroke="#dbe4ec"/><text x="34" y="44" font-size="26" fill="#17324d" font-weight="700" text-anchor="start">La mediana no resume el perfil ajustado</text><text x="34" y="76" font-size="17" fill="#52677a" font-weight="500" text-anchor="start">Coeficiente de participación · tres cuantiles condicionales e IC95% bootstrap</text><line x1="278.5" y1="135" x2="278.5" y2="391" stroke="#dbe4ec" stroke-width="1" /><text x="278.5" y="418" font-size="17" fill="#52677a" font-weight="500" text-anchor="middle">−1.000</text><line x1="385.5" y1="135" x2="385.5" y2="391" stroke="#52677a" stroke-width="1.5" stroke-dasharray="5 5"/><text x="385.5" y="418" font-size="17" fill="#52677a" font-weight="500" text-anchor="middle">0</text><line x1="492.5" y1="135" x2="492.5" y2="391" stroke="#dbe4ec" stroke-width="1" /><text x="492.5" y="418" font-size="17" fill="#52677a" font-weight="500" text-anchor="middle">1.000</text><line x1="599.5" y1="135" x2="599.5" y2="391" stroke="#dbe4ec" stroke-width="1" /><text x="599.5" y="418" font-size="17" fill="#52677a" font-weight="500" text-anchor="middle">2.000</text><line x1="706.5" y1="135" x2="706.5" y2="391" stroke="#dbe4ec" stroke-width="1" /><text x="706.5" y="418" font-size="17" fill="#52677a" font-weight="500" text-anchor="middle">3.000</text><line x1="473.71" y1="135" x2="473.71" y2="391" stroke="#b76514" stroke-width="2" stroke-dasharray="7 6"/><text x="48" y="170" font-size="19" fill="#17324d" font-weight="650" text-anchor="start">q0,30</text><line x1="383.65" y1="164" x2="513.78" y2="164" stroke="#0b7285" stroke-width="5" /><line x1="383.65" y1="156" x2="383.65" y2="172" stroke="#0b7285" stroke-width="2" /><line x1="513.78" y1="156" x2="513.78" y2="172" stroke="#0b7285" stroke-width="2" /><circle cx="448.71" cy="164" r="7" fill="#17324d"/><text x="448.71" y="147" font-size="19" fill="#0b7285" font-weight="700" text-anchor="middle">591</text><text x="48" y="250" font-size="19" fill="#17324d" font-weight="650" text-anchor="start">q0,50</text><line x1="272.23" y1="244" x2="566.59" y2="244" stroke="#0b7285" stroke-width="5" /><line x1="272.23" y1="236" x2="272.23" y2="252" stroke="#0b7285" stroke-width="2" /><line x1="566.59" y1="236" x2="566.59" y2="252" stroke="#0b7285" stroke-width="2" /><circle cx="419.41" cy="244" r="7" fill="#17324d"/><text x="419.41" y="227" font-size="19" fill="#0b7285" font-weight="700" text-anchor="middle">317</text><text x="48" y="330" font-size="19" fill="#17324d" font-weight="650" text-anchor="start">q0,70</text><line x1="404.71" y1="324" x2="734.61" y2="324" stroke="#0b7285" stroke-width="5" /><line x1="404.71" y1="316" x2="404.71" y2="332" stroke="#0b7285" stroke-width="2" /><line x1="734.61" y1="316" x2="734.61" y2="332" stroke="#0b7285" stroke-width="2" /><circle cx="569.66" cy="324" r="7" fill="#17324d"/><text x="569.66" y="307" font-size="19" fill="#0b7285" font-weight="700" text-anchor="middle">1.721</text><text x="34" y="477" font-size="18" fill="#17324d" font-weight="600" text-anchor="start">Línea discontinua: MCO ajustado, 824 unidades.</text><text x="34" y="505" font-size="16" fill="#52677a" font-weight="500" text-anchor="start">IC puntuales, 500 réplicas; el contraste conjunto de igualdad entrega p=0,065.</text></g></svg>
