<svg xmlns="http://www.w3.org/2000/svg" viewBox="0 0 880 580" role="img" aria-labelledby="title desc"><title id="title">La composición impulsa; estructura cambia la forma</title><desc id="desc">Cambios en cuantiles incondicionales · 2003–2005 menos 1983–1985</desc><g font-family="Segoe UI, system-ui, sans-serif"><rect width="880" height="580" rx="18" fill="#f8fafc"/><rect x="26" y="104" width="828" height="388" rx="14" fill="white" stroke="#dbe4ec"/><text x="34" y="44" font-size="25" fill="#17324d" font-weight="700" text-anchor="start">La composición impulsa; estructura cambia la forma</text><text x="34" y="76" font-size="17" fill="#52677a" font-weight="500" text-anchor="start">Cambios en cuantiles incondicionales · 2003–2005 menos 1983–1985</text><line x1="48" y1="133" x2="73" y2="133" stroke="#17324d" stroke-width="3.5" /><text x="83" y="139" font-size="17" fill="#17324d" font-weight="500" text-anchor="start">Cambio total</text><line x1="313" y1="133" x2="338" y2="133" stroke="#0b7285" stroke-width="3.5" /><text x="348" y="139" font-size="17" fill="#17324d" font-weight="500" text-anchor="start">Composición</text><line x1="578" y1="133" x2="603" y2="133" stroke="#b76514" stroke-width="3.5" /><text x="613" y="139" font-size="17" fill="#17324d" font-weight="500" text-anchor="start">Estructura</text><line x1="110" y1="394.29" x2="812" y2="394.29" stroke="#dbe4ec" stroke-width="1" /><text x="94" y="399.29" font-size="17" fill="#52677a" font-weight="500" text-anchor="end">−0,10</text><line x1="110" y1="322.86" x2="812" y2="322.86" stroke="#52677a" stroke-width="1" stroke-dasharray="5 5"/><text x="94" y="327.86" font-size="17" fill="#52677a" font-weight="500" text-anchor="end">0</text><line x1="110" y1="251.43" x2="812" y2="251.43" stroke="#dbe4ec" stroke-width="1" /><text x="94" y="256.43" font-size="17" fill="#52677a" font-weight="500" text-anchor="end">0,10</text><line x1="110" y1="180" x2="812" y2="180" stroke="#dbe4ec" stroke-width="1" /><text x="94" y="185" font-size="17" fill="#52677a" font-weight="500" text-anchor="end">0,20</text><text x="132" y="460" font-size="17" fill="#52677a" font-weight="500" text-anchor="middle">0,10</text><text x="213.25" y="460" font-size="17" fill="#52677a" font-weight="500" text-anchor="middle">0,20</text><text x="294.5" y="460" font-size="17" fill="#52677a" font-weight="500" text-anchor="middle">0,30</text><text x="375.75" y="460" font-size="17" fill="#52677a" font-weight="500" text-anchor="middle">0,40</text><text x="457" y="460" font-size="17" fill="#52677a" font-weight="500" text-anchor="middle">0,50</text><text x="538.25" y="460" font-size="17" fill="#52677a" font-weight="500" text-anchor="middle">0,60</text><text x="619.5" y="460" font-size="17" fill="#52677a" font-weight="500" text-anchor="middle">0,70</text><text x="700.75" y="460" font-size="17" fill="#52677a" font-weight="500" text-anchor="middle">0,80</text><text x="782" y="460" font-size="17" fill="#52677a" font-weight="500" text-anchor="middle">0,90</text><polyline points="132,278.5 213.25,303.29 294.5,327.57 375.75,330.93 457,331.14 538.25,315.57 619.5,296.14 700.75,253.29 782,200.57" fill="none" stroke="#17324d" stroke-width="3"/><circle cx="132" cy="278.5" r="5" fill="#17324d"/><circle cx="213.25" cy="303.29" r="5" fill="#17324d"/><circle cx="294.5" cy="327.57" r="5" fill="#17324d"/><circle cx="375.75" cy="330.93" r="5" fill="#17324d"/><circle cx="457" cy="331.14" r="5" fill="#17324d"/><circle cx="538.25" cy="315.57" r="5" fill="#17324d"/><circle cx="619.5" cy="296.14" r="5" fill="#17324d"/><circle cx="700.75" cy="253.29" r="5" fill="#17324d"/><circle cx="782" cy="200.57" r="5" fill="#17324d"/><polyline points="132,291.5 213.25,277.93 294.5,266.36 375.75,265.14 457,251.21 538.25,263 619.5,257.86 700.75,241.21 782,237.57" fill="none" stroke="#0b7285" stroke-width="3"/><rect x="127" y="286.5" width="10" height="10" rx="3" fill="#0b7285"/><rect x="208.25" y="272.93" width="10" height="10" rx="3" fill="#0b7285"/><rect x="289.5" y="261.36" width="10" height="10" rx="3" fill="#0b7285"/><rect x="370.75" y="260.14" width="10" height="10" rx="3" fill="#0b7285"/><rect x="452" y="246.21" width="10" height="10" rx="3" fill="#0b7285"/><rect x="533.25" y="258" width="10" height="10" rx="3" fill="#0b7285"/><rect x="614.5" y="252.86" width="10" height="10" rx="3" fill="#0b7285"/><rect x="695.75" y="236.21" width="10" height="10" rx="3" fill="#0b7285"/><rect x="777" y="232.57" width="10" height="10" rx="3" fill="#0b7285"/><polyline points="132,309.86 213.25,348.21 294.5,384.07 375.75,388.64 457,402.79 538.25,375.5 619.5,361.14 700.75,334.93 782,285.86" fill="none" stroke="#b76514" stroke-width="3"/><circle cx="132" cy="309.86" r="5" fill="#b76514"/><circle cx="213.25" cy="348.21" r="5" fill="#b76514"/><circle cx="294.5" cy="384.07" r="5" fill="#b76514"/><circle cx="375.75" cy="388.64" r="5" fill="#b76514"/><circle cx="457" cy="402.79" r="5" fill="#b76514"/><circle cx="538.25" cy="375.5" r="5" fill="#b76514"/><circle cx="619.5" cy="361.14" r="5" fill="#b76514"/><circle cx="700.75" cy="334.93" r="5" fill="#b76514"/><circle cx="782" cy="285.86" r="5" fill="#b76514"/><text x="462" y="488" font-size="17" fill="#52677a" font-weight="500" text-anchor="middle">Cuantil</text><text x="34" y="531" font-size="18" fill="#17324d" font-weight="650" text-anchor="start">La mediana combina +0,1003 de composición y −0,1119 de estructura.</text><text x="34" y="557" font-size="16" fill="#52677a" font-weight="500" text-anchor="start">Log puntos; líneas entre deciles reportados, sin bandas de inferencia.</text></g></svg>
