<svg xmlns="http://www.w3.org/2000/svg" viewBox="0 0 880 575" role="img" aria-labelledby="title desc"><title id="title">Auto: recall por origen y modelo</title><desc id="desc">LDA, QDA, NB: American 86,12 %, 86,12 %, 71,84 %; European 47,06 %, 55,88 %, 48,53 %; Japanese 62,03 %, 77,22 %, 72,15 %.</desc><g font-family="Segoe UI, Arial, sans-serif"><rect x="0" y="0" width="880" height="575" rx="18" fill="#f8fafc"/><text x="28" y="40" font-size="24" fill="#17324d" font-weight="700" text-anchor="start">El acierto agregado oculta diferencias por origen</text><text x="28" y="71" font-size="17" fill="#5d6b78" font-weight="400" text-anchor="start">Auto · recall OOF: proporción recuperada dentro de cada clase</text><rect x="22" y="95" width="836" height="387" rx="14" fill="#fff"/><rect x="44" y="115" width="14" height="14" rx="4" fill="#17324d"/><text x="65" y="128" font-size="16" fill="#17324d" font-weight="400" text-anchor="start">LDA</text><rect x="264" y="115" width="14" height="14" rx="4" fill="#0b7285"/><text x="285" y="128" font-size="16" fill="#17324d" font-weight="400" text-anchor="start">QDA</text><rect x="484" y="115" width="14" height="14" rx="4" fill="#b76514"/><text x="505" y="128" font-size="16" fill="#17324d" font-weight="400" text-anchor="start">Gaussian NB</text><path d="M205 153 V430" stroke="#dce3e9"/><text x="205" y="459" font-size="15" fill="#5d6b78" font-weight="400" text-anchor="middle">0 %</text><path d="M307 153 V430" stroke="#dce3e9"/><text x="307" y="459" font-size="15" fill="#5d6b78" font-weight="400" text-anchor="middle">20 %</text><path d="M409 153 V430" stroke="#dce3e9"/><text x="409" y="459" font-size="15" fill="#5d6b78" font-weight="400" text-anchor="middle">40 %</text><path d="M511 153 V430" stroke="#dce3e9"/><text x="511" y="459" font-size="15" fill="#5d6b78" font-weight="400" text-anchor="middle">60 %</text><path d="M613 153 V430" stroke="#dce3e9"/><text x="613" y="459" font-size="15" fill="#5d6b78" font-weight="400" text-anchor="middle">80 %</text><path d="M715 153 V430" stroke="#dce3e9"/><text x="715" y="459" font-size="15" fill="#5d6b78" font-weight="400" text-anchor="middle">100 %</text><text x="43" y="185" font-size="18" fill="#17324d" font-weight="700" text-anchor="start">American</text><text x="43" y="209" font-size="15" fill="#5d6b78" font-weight="400" text-anchor="start">n = 245</text><rect x="205" y="158" width="439.212" height="18" rx="4" fill="#17324d"/><text x="654.212" y="173" font-size="15" fill="#17324d" font-weight="600" text-anchor="start">86,12 %</text><rect x="205" y="182" width="439.212" height="18" rx="4" fill="#0b7285"/><text x="654.212" y="197" font-size="15" fill="#17324d" font-weight="600" text-anchor="start">86,12 %</text><rect x="205" y="206" width="366.384" height="18" rx="4" fill="#b76514"/><text x="581.384" y="221" font-size="15" fill="#17324d" font-weight="600" text-anchor="start">71,84 %</text><text x="43" y="279" font-size="18" fill="#17324d" font-weight="700" text-anchor="start">European</text><text x="43" y="303" font-size="15" fill="#5d6b78" font-weight="400" text-anchor="start">n = 68</text><rect x="205" y="252" width="240.006" height="18" rx="4" fill="#17324d"/><text x="455.006" y="267" font-size="15" fill="#17324d" font-weight="600" text-anchor="start">47,06 %</text><rect x="205" y="276" width="284.988" height="18" rx="4" fill="#0b7285"/><text x="499.988" y="291" font-size="15" fill="#17324d" font-weight="600" text-anchor="start">55,88 %</text><rect x="205" y="300" width="247.503" height="18" rx="4" fill="#b76514"/><text x="462.503" y="315" font-size="15" fill="#17324d" font-weight="600" text-anchor="start">48,53 %</text><text x="43" y="373" font-size="18" fill="#17324d" font-weight="700" text-anchor="start">Japanese</text><text x="43" y="397" font-size="15" fill="#5d6b78" font-weight="400" text-anchor="start">n = 79</text><rect x="205" y="346" width="316.353" height="18" rx="4" fill="#17324d"/><text x="531.3530000000001" y="361" font-size="15" fill="#17324d" font-weight="600" text-anchor="start">62,03 %</text><rect x="205" y="370" width="393.82199999999995" height="18" rx="4" fill="#0b7285"/><text x="608.8219999999999" y="385" font-size="15" fill="#17324d" font-weight="600" text-anchor="start">77,22 %</text><rect x="205" y="394" width="367.965" height="18" rx="4" fill="#b76514"/><text x="582.9649999999999" y="409" font-size="15" fill="#17324d" font-weight="600" text-anchor="start">72,15 %</text><text x="28" y="519" font-size="17" fill="#17324d" font-weight="700" text-anchor="start">QDA conserva el recall americano y mejora las dos clases minoritarias.</text><text x="28" y="550" font-size="16" fill="#5d6b78" font-weight="400" text-anchor="start">European sigue siendo difícil: QDA reconoce 38 de 68 casos.</text></g></svg>
